<svg width="344" height="202" viewBox="0 0 344 202" fill="none" xmlns="http://www.w3.org/2000/svg">
<ellipse cx="209.154" cy="65.3846" rx="3.84615" ry="3.84615" transform="rotate(-90 209.154 65.3846)" fill="black"/>
<ellipse cx="209.154" cy="3.84611" rx="3.84615" ry="3.84615" transform="rotate(-90 209.154 3.84611)" fill="black"/>
<circle cx="147.616" cy="65.3846" r="3.84615" transform="rotate(-90 147.616 65.3846)" fill="black"/>
<circle cx="147.616" cy="3.84611" r="3.84615" transform="rotate(-90 147.616 3.84611)" fill="black"/>
<ellipse cx="85.3846" cy="65.3848" rx="3.84615" ry="3.84615" transform="rotate(-90 85.3846 65.3848)" fill="black"/>
<ellipse cx="85.3845" cy="3.84647" rx="3.84615" ry="3.84615" transform="rotate(-90 85.3845 3.84647)" fill="black"/>
<ellipse cx="23.8461" cy="65.3849" rx="3.84615" ry="3.84615" transform="rotate(-90 23.8461 65.3849)" fill="black"/>
<ellipse cx="23.8461" cy="3.84647" rx="3.84615" ry="3.84615" transform="rotate(-90 23.8461 3.84647)" fill="black"/>
<ellipse cx="209.154" cy="189.154" rx="3.84615" ry="3.84615" transform="rotate(-90 209.154 189.154)" fill="black"/>
<ellipse cx="209.154" cy="127.615" rx="3.84615" ry="3.84615" transform="rotate(-90 209.154 127.615)" fill="black"/>
<ellipse cx="147.615" cy="189.154" rx="3.84615" ry="3.84615" transform="rotate(-90 147.615 189.154)" fill="black"/>
<circle cx="147.615" cy="127.615" r="3.84615" transform="rotate(-90 147.615 127.615)" fill="black"/>
<ellipse cx="85.3845" cy="189.154" rx="3.84615" ry="3.84615" transform="rotate(-90 85.3845 189.154)" fill="black"/>
<ellipse cx="85.3845" cy="127.615" rx="3.84615" ry="3.84615" transform="rotate(-90 85.3845 127.615)" fill="black"/>
<ellipse cx="23.8461" cy="189.154" rx="3.84615" ry="3.84615" transform="rotate(-90 23.8461 189.154)" fill="black"/>
<ellipse cx="23.8461" cy="127.615" rx="3.84615" ry="3.84615" transform="rotate(-90 23.8461 127.615)" fill="black"/>
<circle cx="332.616" cy="66.3847" r="3.84615" transform="rotate(-90 332.616 66.3847)" fill="black"/>
<circle cx="332.616" cy="4.84623" r="3.84615" transform="rotate(-90 332.616 4.84623)" fill="black"/>
<ellipse cx="270.385" cy="66.3849" rx="3.84615" ry="3.84615" transform="rotate(-90 270.385 66.3849)" fill="black"/>
<ellipse cx="270.384" cy="4.8466" rx="3.84615" ry="3.84615" transform="rotate(-90 270.384 4.8466)" fill="black"/>
<ellipse cx="208.846" cy="66.385" rx="3.84615" ry="3.84615" transform="rotate(-90 208.846 66.385)" fill="black"/>
<ellipse cx="208.846" cy="4.8466" rx="3.84615" ry="3.84615" transform="rotate(-90 208.846 4.8466)" fill="black"/>
<ellipse cx="332.615" cy="190.154" rx="3.84615" ry="3.84615" transform="rotate(-90 332.615 190.154)" fill="black"/>
<circle cx="332.615" cy="128.616" r="3.84615" transform="rotate(-90 332.615 128.616)" fill="black"/>
<ellipse cx="270.384" cy="190.154" rx="3.84615" ry="3.84615" transform="rotate(-90 270.384 190.154)" fill="black"/>
<ellipse cx="270.384" cy="128.616" rx="3.84615" ry="3.84615" transform="rotate(-90 270.384 128.616)" fill="black"/>
<ellipse cx="208.846" cy="190.154" rx="3.84615" ry="3.84615" transform="rotate(-90 208.846 190.154)" fill="black"/>
<ellipse cx="208.846" cy="128.616" rx="3.84615" ry="3.84615" transform="rotate(-90 208.846 128.616)" fill="black"/>
<circle cx="20" cy="182" r="20" transform="rotate(-90 20 182)" fill="#2255FF"/>
</svg>
