<svg width="408" height="944" viewBox="0 0 408 944" fill="none" xmlns="http://www.w3.org/2000/svg">
<g filter="url(#filter0_d)">
<path fill-rule="evenodd" clip-rule="evenodd" d="M404 734.088L404 946H4L4 734.088C4 630.21 93.5431 546 204 546C314.457 546 404 630.21 404 734.088Z" fill="#2255FF"/>
</g>
<g filter="url(#filter1_d)">
<ellipse cx="279.615" cy="209.154" rx="3.84616" ry="3.84613" fill="black"/>
<ellipse cx="341.154" cy="209.154" rx="3.84616" ry="3.84613" fill="black"/>
<ellipse cx="279.615" cy="147.616" rx="3.84616" ry="3.84615" fill="black"/>
<ellipse cx="341.154" cy="147.616" rx="3.84616" ry="3.84615" fill="black"/>
<ellipse cx="279.615" cy="85.3846" rx="3.84616" ry="3.84615" fill="black"/>
<ellipse cx="341.154" cy="85.3845" rx="3.84616" ry="3.84615" fill="black"/>
<ellipse cx="279.615" cy="23.8461" rx="3.84613" ry="3.84615" fill="black"/>
<ellipse cx="341.154" cy="23.8462" rx="3.84619" ry="3.84615" fill="black"/>
<ellipse cx="155.846" cy="209.154" rx="3.84616" ry="3.84615" fill="black"/>
<ellipse cx="217.384" cy="209.154" rx="3.84616" ry="3.84615" fill="black"/>
<ellipse cx="155.846" cy="147.615" rx="3.84616" ry="3.84615" fill="black"/>
<ellipse cx="217.385" cy="147.615" rx="3.84616" ry="3.84615" fill="black"/>
<ellipse cx="155.846" cy="85.3845" rx="3.84616" ry="3.84615" fill="black"/>
<ellipse cx="217.384" cy="85.3845" rx="3.84616" ry="3.84615" fill="black"/>
<ellipse cx="155.846" cy="23.8461" rx="3.84616" ry="3.84615" fill="black"/>
<ellipse cx="217.384" cy="23.8461" rx="3.84616" ry="3.84615" fill="black"/>
<circle cx="278.616" cy="580.154" r="3.84613" fill="black"/>
<ellipse cx="340.154" cy="580.154" rx="3.84616" ry="3.84613" fill="black"/>
<circle cx="278.616" cy="518.616" r="3.84613" fill="black"/>
<ellipse cx="340.154" cy="518.616" rx="3.84616" ry="3.84613" fill="black"/>
<circle cx="278.615" cy="456.385" r="3.84613" fill="black"/>
<circle cx="340.154" cy="456.384" r="3.84613" fill="black"/>
<ellipse cx="278.615" cy="394.846" rx="3.84616" ry="3.84613" fill="black"/>
<ellipse cx="340.154" cy="394.846" rx="3.84616" ry="3.84619" fill="black"/>
<circle cx="154.846" cy="580.154" r="3.84613" fill="black"/>
<ellipse cx="216.385" cy="580.154" rx="3.84619" ry="3.84613" fill="black"/>
<ellipse cx="154.846" cy="518.615" rx="3.84613" ry="3.84619" fill="black"/>
<ellipse cx="216.385" cy="518.615" rx="3.84616" ry="3.84619" fill="black"/>
<circle cx="154.846" cy="456.384" r="3.84613" fill="black"/>
<ellipse cx="216.385" cy="456.384" rx="3.84619" ry="3.84613" fill="black"/>
<circle cx="154.846" cy="394.846" r="3.84613" fill="black"/>
<ellipse cx="216.385" cy="394.846" rx="3.84619" ry="3.84613" fill="black"/>
<circle cx="278.615" cy="394.154" r="3.84613" fill="black"/>
<ellipse cx="340.154" cy="394.154" rx="3.84616" ry="3.84613" fill="black"/>
<ellipse cx="278.615" cy="332.616" rx="3.84613" ry="3.84616" fill="black"/>
<circle cx="340.154" cy="332.616" r="3.84616" fill="black"/>
<ellipse cx="278.615" cy="270.385" rx="3.84616" ry="3.84615" fill="black"/>
<ellipse cx="340.154" cy="270.385" rx="3.84613" ry="3.84615" fill="black"/>
<ellipse cx="278.615" cy="208.846" rx="3.84613" ry="3.84616" fill="black"/>
<circle cx="340.154" cy="208.846" r="3.84616" fill="black"/>
<circle cx="154.846" cy="394.154" r="3.84613" fill="black"/>
<ellipse cx="216.385" cy="394.154" rx="3.84619" ry="3.84613" fill="black"/>
<ellipse cx="154.846" cy="332.615" rx="3.84613" ry="3.84615" fill="black"/>
<ellipse cx="216.385" cy="332.615" rx="3.84616" ry="3.84615" fill="black"/>
<ellipse cx="154.846" cy="270.385" rx="3.84613" ry="3.84615" fill="black"/>
<ellipse cx="216.385" cy="270.385" rx="3.84619" ry="3.84615" fill="black"/>
<ellipse cx="154.846" cy="208.846" rx="3.84613" ry="3.84616" fill="black"/>
<ellipse cx="216.385" cy="208.846" rx="3.84619" ry="3.84616" fill="black"/>
</g>
<circle cx="163" cy="20" r="20" fill="#2255FF"/>
<defs>
<filter id="filter0_d" x="0" y="544" width="408" height="408" filterUnits="userSpaceOnUse" color-interpolation-filters="sRGB">
<feFlood flood-opacity="0" result="BackgroundImageFix"/>
<feColorMatrix in="SourceAlpha" type="matrix" values="0 0 0 0 0 0 0 0 0 0 0 0 0 0 0 0 0 0 127 0"/>
<feOffset dy="2"/>
<feGaussianBlur stdDeviation="2"/>
<feColorMatrix type="matrix" values="0 0 0 0 0.392157 0 0 0 0 0.392157 0 0 0 0 0.392157 0 0 0 0.498039 0"/>
<feBlend mode="normal" in2="BackgroundImageFix" result="effect1_dropShadow"/>
<feBlend mode="normal" in="SourceGraphic" in2="effect1_dropShadow" result="shape"/>
</filter>
<filter id="filter1_d" x="147" y="20" width="202" height="572" filterUnits="userSpaceOnUse" color-interpolation-filters="sRGB">
<feFlood flood-opacity="0" result="BackgroundImageFix"/>
<feColorMatrix in="SourceAlpha" type="matrix" values="0 0 0 0 0 0 0 0 0 0 0 0 0 0 0 0 0 0 127 0"/>
<feOffset dy="4"/>
<feGaussianBlur stdDeviation="2"/>
<feColorMatrix type="matrix" values="0 0 0 0 0 0 0 0 0 0 0 0 0 0 0 0 0 0 0.25 0"/>
<feBlend mode="normal" in2="BackgroundImageFix" result="effect1_dropShadow"/>
<feBlend mode="normal" in="SourceGraphic" in2="effect1_dropShadow" result="shape"/>
</filter>
</defs>
</svg>
