<svg width="202" height="584" viewBox="0 0 202 584" fill="none" xmlns="http://www.w3.org/2000/svg">
<ellipse cx="136.615" cy="209.154" rx="3.84615" ry="3.84615" fill="white"/>
<ellipse cx="198.154" cy="209.154" rx="3.84615" ry="3.84615" fill="white"/>
<circle cx="136.615" cy="147.616" r="3.84615" fill="white"/>
<circle cx="198.154" cy="147.616" r="3.84615" fill="white"/>
<ellipse cx="136.615" cy="85.3846" rx="3.84615" ry="3.84615" fill="white"/>
<ellipse cx="198.154" cy="85.3845" rx="3.84615" ry="3.84615" fill="white"/>
<ellipse cx="136.615" cy="23.8461" rx="3.84615" ry="3.84615" fill="white"/>
<ellipse cx="198.154" cy="23.8462" rx="3.84615" ry="3.84615" fill="white"/>
<ellipse cx="12.8462" cy="209.154" rx="3.84615" ry="3.84615" fill="white"/>
<ellipse cx="74.3847" cy="209.154" rx="3.84615" ry="3.84615" fill="white"/>
<ellipse cx="12.8462" cy="147.615" rx="3.84615" ry="3.84615" fill="white"/>
<circle cx="74.3847" cy="147.615" r="3.84615" fill="white"/>
<ellipse cx="12.8462" cy="85.3845" rx="3.84615" ry="3.84615" fill="white"/>
<ellipse cx="74.3847" cy="85.3845" rx="3.84615" ry="3.84615" fill="white"/>
<ellipse cx="12.8462" cy="23.8461" rx="3.84615" ry="3.84615" fill="white"/>
<ellipse cx="74.3847" cy="23.8461" rx="3.84615" ry="3.84615" fill="white"/>
<ellipse cx="135.615" cy="580.154" rx="3.84615" ry="3.84615" fill="white"/>
<ellipse cx="197.154" cy="580.154" rx="3.84615" ry="3.84615" fill="white"/>
<circle cx="135.615" cy="518.616" r="3.84615" fill="white"/>
<circle cx="197.154" cy="518.616" r="3.84615" fill="white"/>
<ellipse cx="135.615" cy="456.385" rx="3.84615" ry="3.84615" fill="white"/>
<ellipse cx="197.154" cy="456.385" rx="3.84615" ry="3.84615" fill="white"/>
<ellipse cx="135.615" cy="394.846" rx="3.84615" ry="3.84615" fill="white"/>
<ellipse cx="197.154" cy="394.846" rx="3.84615" ry="3.84615" fill="white"/>
<ellipse cx="11.8462" cy="580.154" rx="3.84615" ry="3.84615" fill="white"/>
<ellipse cx="73.3847" cy="580.154" rx="3.84615" ry="3.84615" fill="white"/>
<ellipse cx="11.8462" cy="518.615" rx="3.84615" ry="3.84615" fill="white"/>
<circle cx="73.3847" cy="518.615" r="3.84615" fill="white"/>
<ellipse cx="11.8462" cy="456.385" rx="3.84615" ry="3.84615" fill="white"/>
<ellipse cx="73.3847" cy="456.385" rx="3.84615" ry="3.84615" fill="white"/>
<ellipse cx="11.8462" cy="394.846" rx="3.84615" ry="3.84615" fill="white"/>
<ellipse cx="73.3847" cy="394.846" rx="3.84615" ry="3.84615" fill="white"/>
<ellipse cx="135.615" cy="394.154" rx="3.84615" ry="3.84615" fill="white"/>
<ellipse cx="197.154" cy="394.154" rx="3.84615" ry="3.84615" fill="white"/>
<circle cx="135.615" cy="332.616" r="3.84615" fill="white"/>
<circle cx="197.154" cy="332.616" r="3.84615" fill="white"/>
<ellipse cx="135.615" cy="270.385" rx="3.84615" ry="3.84615" fill="white"/>
<ellipse cx="197.154" cy="270.385" rx="3.84615" ry="3.84615" fill="white"/>
<ellipse cx="135.615" cy="208.846" rx="3.84615" ry="3.84615" fill="white"/>
<ellipse cx="197.154" cy="208.846" rx="3.84615" ry="3.84615" fill="white"/>
<ellipse cx="11.8462" cy="394.154" rx="3.84615" ry="3.84615" fill="white"/>
<ellipse cx="73.3847" cy="394.154" rx="3.84615" ry="3.84615" fill="white"/>
<ellipse cx="11.8462" cy="332.615" rx="3.84615" ry="3.84615" fill="white"/>
<circle cx="73.3847" cy="332.615" r="3.84615" fill="white"/>
<ellipse cx="11.8462" cy="270.385" rx="3.84615" ry="3.84615" fill="white"/>
<ellipse cx="73.3847" cy="270.385" rx="3.84615" ry="3.84615" fill="white"/>
<ellipse cx="11.8462" cy="208.846" rx="3.84615" ry="3.84615" fill="white"/>
<ellipse cx="73.3847" cy="208.846" rx="3.84615" ry="3.84615" fill="white"/>
<circle cx="20" cy="20" r="20" fill="#2255FF"/>
</svg>
